<?xml version="1.0" standalone="no"?>
<!DOCTYPE svg PUBLIC "-//W3C//DTD SVG 20010904//EN"
 "http://www.w3.org/TR/2001/REC-SVG-20010904/DTD/svg10.dtd">
<svg version="1.0" xmlns="http://www.w3.org/2000/svg"
 width="626.000000pt" height="626.000000pt" viewBox="0 0 626.000000 626.000000"
 preserveAspectRatio="xMidYMid meet">

<g transform="translate(0.000000,626.000000) scale(0.100000,-0.100000)"
fill="#000000" stroke="none">
<path d="M3360 5640 c-55 -6 -147 -50 -180 -85 l-24 -25 35 7 c19 5 68 8 109
8 66 0 82 -4 137 -34 35 -18 83 -55 108 -82 25 -26 45 -45 45 -41 0 5 -5 13
-10 18 -6 6 -13 23 -16 39 -3 15 -9 36 -14 46 -15 27 -12 59 6 66 9 3 20 0 24
-8 5 -7 12 -11 15 -8 11 12 -83 79 -110 79 -14 0 -24 4 -21 9 8 12 -47 17
-104 11z"/>
<path d="M2579 5493 c-13 -16 -12 -17 4 -4 9 7 17 15 17 17 0 8 -8 3 -21 -13z"/>
<path d="M2545 5439 c-9 -17 -15 -33 -13 -35 3 -2 12 12 21 31 21 43 13 47 -8
4z"/>
<path d="M2511 5344 c0 -11 3 -14 6 -6 3 7 2 16 -1 19 -3 4 -6 -2 -5 -13z"/>
<path d="M2503 5285 c0 -22 2 -30 4 -17 2 12 2 30 0 40 -3 9 -5 -1 -4 -23z"/>
<path d="M2442 5022 c-12 -11 -24 -38 -29 -63 l-7 -44 -7 35 c-6 30 -7 28 -8
-20 -1 -73 17 -153 78 -344 28 -87 51 -168 51 -179 0 -11 10 -42 23 -68 19
-42 25 -47 47 -42 14 3 27 7 29 9 5 5 -12 36 -54 98 -35 53 -29 366 7 366 4 0
8 8 8 18 0 19 55 82 72 82 5 0 6 5 3 10 -9 14 14 42 27 34 21 -13 -11 32 -44
61 -72 64 -154 84 -196 47z m-35 -144 c-3 -8 -6 -5 -6 6 -1 11 2 17 5 13 3 -3
4 -12 1 -19z m63 -233 c0 -5 -5 -3 -10 5 -5 8 -10 20 -10 25 0 6 5 3 10 -5 5
-8 10 -19 10 -25z"/>
<path d="M4537 4929 c-60 -11 -203 -39 -318 -63 -173 -36 -213 -47 -233 -67
-51 -49 -63 -59 -75 -59 -7 0 -25 -8 -39 -17 -47 -31 -66 -43 -97 -61 -16 -9
-46 -33 -65 -53 -20 -19 -43 -38 -53 -42 -9 -3 -17 -13 -17 -21 0 -8 -8 -17
-17 -20 -10 -3 18 -2 62 1 131 11 265 12 266 2 1 -5 2 -13 3 -18 2 -18 16 -24
16 -8 0 9 6 17 14 17 14 0 148 84 216 135 18 14 44 28 57 31 13 4 23 12 23 20
0 8 7 14 17 14 9 0 51 23 94 50 43 28 80 50 83 50 3 0 36 20 73 43 37 24 75
47 83 51 8 4 26 13 40 21 l25 15 -25 -1 c-14 0 -74 -9 -133 -20z"/>
<path d="M3892 4820 c-12 -5 -131 -76 -265 -156 -133 -81 -268 -163 -300 -182
-32 -19 -56 -37 -53 -39 5 -5 80 35 181 99 163 101 325 194 410 234 52 25 95
47 95 50 0 7 -44 3 -68 -6z"/>
<path d="M1230 4730 c0 -5 4 -10 9 -10 6 0 13 5 16 10 3 6 -1 10 -9 10 -9 0
-16 -4 -16 -10z"/>
<path d="M1180 4710 c-13 -9 -13 -10 0 -10 8 0 22 5 30 10 13 9 13 10 0 10 -8
0 -22 -5 -30 -10z"/>
<path d="M1692 4692 c-24 -15 -53 -43 -65 -62 l-21 -35 22 19 c12 11 22 15 23
10 0 -5 4 0 9 11 7 17 9 17 9 3 1 -14 10 -18 35 -18 20 0 36 -6 39 -14 3 -8
34 -28 70 -45 37 -18 68 -40 74 -53 11 -25 93 -74 93 -56 0 5 16 -6 36 -26 20
-20 39 -36 43 -36 3 0 13 -5 21 -10 20 -12 32 -210 13 -203 -7 3 -13 0 -13 -6
0 -6 -3 -10 -7 -10 -22 4 -31 -4 -38 -28 -3 -15 -11 -31 -17 -34 -6 -4 -9 -11
-7 -17 2 -7 57 13 130 46 69 31 140 62 159 69 l33 12 -47 55 c-25 30 -46 57
-46 60 0 12 -34 45 -42 40 -5 -3 -7 -2 -6 3 2 5 -16 27 -39 50 -22 22 -53 59
-67 82 -27 43 -143 161 -158 161 -4 0 -8 6 -8 14 0 21 -74 46 -133 45 -38 0
-64 -8 -95 -27z"/>
<path d="M953 4538 c-11 -13 -24 -30 -28 -38 -8 -16 -6 -14 34 33 14 15 22 27
19 27 -2 0 -14 -10 -25 -22z"/>
<path d="M2981 4467 c-1 -20 -5 -45 -10 -55 -6 -9 -13 -30 -16 -46 -8 -37
-101 -130 -148 -147 -40 -14 -44 -24 -23 -52 13 -17 19 -17 58 -6 23 7 60 23
80 36 21 13 46 23 57 23 10 0 21 7 25 15 3 8 12 15 20 15 8 0 34 19 58 42 36
35 39 40 18 34 -65 -19 -95 -18 -107 3 -8 13 -9 22 -3 26 12 7 12 89 0 125 -7
22 -8 21 -9 -13z"/>
<path d="M2066 4244 c-9 -25 -7 -64 4 -64 6 0 10 18 10 40 0 43 -4 50 -14 24z"/>
<path d="M2356 4238 c7 -11 41 -10 49 1 3 5 -8 9 -24 9 -17 -1 -28 -5 -25 -10z"/>
<path d="M3170 4144 c-52 -7 -151 -19 -219 -26 -113 -11 -124 -14 -132 -35
-10 -27 -24 -29 -37 -7 -8 13 -23 15 -98 11 -106 -5 -252 -25 -276 -38 -10 -5
-25 -9 -33 -9 -8 0 -15 -4 -15 -10 0 -5 -8 -10 -18 -10 -40 0 -172 -67 -221
-112 -40 -37 -89 -77 -130 -105 -2 -2 4 -12 14 -23 14 -16 31 -20 78 -20 l61
0 -112 -72 c-62 -40 -149 -97 -195 -126 -141 -91 -142 -93 -142 -159 1 -46 10
-79 44 -158 156 -358 448 -945 744 -1495 133 -248 386 -712 441 -810 17 -30
40 -71 50 -91 69 -131 115 -170 161 -135 20 15 20 15 -2 16 -34 0 -18 37 21
46 17 3 36 11 43 16 7 5 126 11 275 13 145 2 268 4 274 4 23 2 -8 107 -74 257
-22 49 -61 139 -87 199 -26 61 -74 166 -105 235 -32 69 -108 235 -168 370 -61
135 -128 283 -150 330 -150 321 -185 406 -179 437 5 26 1 27 -60 8 -21 -7 -23
-4 -23 27 0 19 -4 38 -8 43 -5 6 -15 26 -22 45 -8 19 -49 112 -93 205 -44 94
-92 198 -108 233 -39 84 -119 246 -151 305 l-27 47 27 33 c30 36 58 61 112 97
20 14 63 43 95 65 32 22 72 48 89 59 17 10 34 23 38 30 7 11 13 13 53 15 15 1
16 4 7 13 -21 21 -14 64 13 82 37 24 78 39 69 25 -5 -8 1 -10 19 -5 19 4 26 2
29 -10 2 -13 6 -12 25 5 12 12 25 21 28 21 3 0 27 22 53 48 52 53 96 66 178
55 58 -8 67 12 24 49 -38 31 -42 31 -180 12z m-950 -395 c-14 -11 -36 -29 -50
-40 -14 -10 -39 -30 -56 -44 -18 -14 -36 -25 -40 -26 -5 0 -29 -16 -54 -34
-25 -19 -86 -59 -136 -90 -94 -57 -131 -71 -100 -36 22 25 235 170 301 205 28
15 73 40 100 56 59 34 70 37 35 9z m580 -1138 c-8 -5 -44 -12 -80 -16 -36 -4
-101 -13 -145 -20 -100 -17 -298 -29 -270 -16 11 4 67 12 125 16 58 3 123 11
145 17 41 11 144 24 205 26 24 1 30 -1 20 -7z"/>
<path d="M3383 4054 c-3 -9 6 -42 22 -73 42 -86 170 -370 235 -521 58 -136 90
-228 90 -262 0 -18 -38 -62 -71 -83 -79 -50 -220 -148 -225 -157 -8 -13 15 0
86 46 64 42 77 44 110 13 23 -20 31 -32 59 -84 6 -10 70 -142 144 -293 74
-151 189 -385 255 -520 66 -135 140 -288 165 -340 24 -52 72 -153 106 -224 34
-71 72 -158 83 -194 20 -61 21 -67 5 -93 -16 -28 -16 -29 8 -29 34 0 56 26 49
58 -11 50 -209 595 -289 797 -25 63 -160 415 -200 520 -13 33 -33 85 -45 115
-12 30 -33 82 -45 115 -38 100 -99 252 -163 405 -33 80 -76 185 -96 233 -20
49 -56 132 -80 185 -24 53 -52 117 -62 142 -33 79 -123 260 -129 260 -3 0 -8
-7 -12 -16z"/>
<path d="M1825 4021 l-100 -6 35 -23 c27 -17 43 -21 70 -16 32 5 100 39 100
50 0 2 -1 3 -2 2 -2 -1 -48 -4 -103 -7z"/>
<path d="M4931 3925 c0 -5 6 -21 14 -35 8 -14 14 -20 14 -15 0 6 -6 21 -14 35
-8 14 -14 21 -14 15z"/>
<path d="M1775 3894 c-51 -18 -128 -56 -136 -67 -3 -5 -65 -12 -137 -16 -72
-4 -134 -10 -138 -13 -19 -20 245 -22 316 -2 36 10 14 -10 -30 -26 -19 -8 -57
-24 -85 -36 -219 -98 -342 -133 -468 -135 -75 -1 -78 -2 -38 -10 24 -5 45 -10
47 -12 2 -2 -47 -35 -108 -72 -177 -107 -391 -250 -417 -278 -29 -32 -24 -61
19 -108 28 -29 49 -69 108 -201 10 -21 23 -38 29 -38 7 0 15 -12 19 -27 12
-59 36 -113 50 -113 8 0 14 -9 14 -21 0 -11 8 -33 19 -47 10 -15 22 -42 26
-59 3 -18 11 -33 16 -33 6 0 8 -8 5 -17 -3 -10 -1 -25 4 -33 6 -10 10 -11 10
-2 0 6 5 12 10 12 6 0 10 -9 10 -19 0 -11 9 -23 20 -26 11 -3 20 -11 20 -16 0
-24 31 -39 77 -39 27 0 54 -5 61 -12 7 -7 41 -11 89 -10 91 2 141 11 124 22
-7 4 36 10 95 13 112 7 134 15 112 38 -7 8 -14 21 -16 30 -1 9 -47 111 -103
225 -55 115 -103 218 -108 229 -5 11 -27 61 -49 110 -22 50 -52 123 -66 164
-45 127 -33 146 176 277 62 39 185 117 273 174 171 110 210 130 250 130 l27 0
-34 -27 c-39 -33 -48 -43 -48 -61 0 -17 67 -8 123 17 l38 16 -63 61 c-35 34
-72 64 -83 67 -11 3 -38 -1 -60 -9z"/>
<path d="M988 3603 c7 -3 16 -2 19 1 4 3 -2 6 -13 5 -11 0 -14 -3 -6 -6z"/>
<path d="M3394 2935 c-10 -8 -14 -15 -8 -15 6 0 17 7 24 15 16 19 9 19 -16 0z"/>
<path d="M3350 2910 c-9 -6 -10 -10 -3 -10 6 0 15 5 18 10 8 12 4 12 -15 0z"/>
<path d="M3273 2854 l-28 -26 35 23 c46 29 45 29 32 29 -6 0 -24 -12 -39 -26z"/>
<path d="M1420 2399 c-176 -30 -221 -41 -216 -53 3 -6 10 -28 17 -48 8 -25 18
-38 29 -38 24 0 34 -15 55 -80 10 -30 24 -64 31 -75 8 -11 14 -26 14 -33 0 -8
9 -25 20 -39 11 -14 22 -41 26 -60 4 -20 14 -37 23 -40 17 -4 111 -187 111
-215 0 -10 5 -18 10 -18 6 0 10 -4 10 -10 0 -5 11 -20 25 -34 14 -14 25 -34
25 -46 0 -11 4 -28 9 -38 5 -9 21 -43 36 -74 15 -31 34 -59 41 -62 8 -3 14
-12 14 -19 0 -8 13 -38 30 -68 16 -30 30 -62 30 -71 0 -11 8 -18 19 -18 13 0
20 -9 25 -30 4 -24 11 -30 31 -30 21 0 25 -5 25 -29 0 -25 4 -30 28 -33 26 -3
27 -6 28 -58 2 -155 3 -160 24 -160 11 0 20 -4 20 -10 0 -5 9 -10 20 -10 13 0
20 -7 20 -20 0 -11 5 -20 10 -20 6 0 10 -9 10 -20 0 -16 7 -20 30 -20 25 0 30
-4 30 -24 0 -51 7 -56 85 -56 49 0 75 -4 79 -12 5 -10 7 -10 12 0 4 8 32 12
90 12 60 0 84 4 84 13 0 8 3 7 10 -3 5 -8 12 -12 15 -8 7 7 -91 197 -118 229
-9 10 -17 24 -17 30 0 6 -8 23 -18 37 -10 15 -24 39 -31 54 -8 15 -18 25 -22
22 -5 -3 -7 1 -4 8 2 7 -7 31 -20 53 -14 22 -34 58 -46 80 -12 22 -27 43 -33
47 -6 4 -7 8 -3 8 5 0 -4 22 -19 50 -15 27 -31 47 -37 43 -6 -3 -7 -1 -3 5 5
9 -18 57 -74 152 -12 22 -147 272 -194 362 -22 42 -44 74 -50 71 -5 -3 -6 -1
-2 6 4 6 -8 40 -28 74 -19 35 -67 127 -105 205 -53 105 -75 142 -88 141 -10
-1 -65 -10 -123 -20z m520 -1359 c0 -11 -4 -20 -10 -20 -5 0 -10 9 -10 20 0
11 5 20 10 20 6 0 10 -9 10 -20z m417 -126 c-6 -7 30 -81 44 -90 5 -3 9 -10 9
-15 0 -19 -18 1 -44 47 -23 41 -26 64 -9 64 4 0 4 -3 0 -6z m-97 -164 c0 -5
-4 -10 -10 -10 -5 0 -10 5 -10 10 0 6 5 10 10 10 6 0 10 -4 10 -10z"/>
<path d="M1660 1411 c10 -27 28 -66 40 -87 19 -37 20 -38 20 -11 0 15 -4 27
-10 27 -5 0 -10 9 -10 20 0 11 -4 20 -10 20 -5 0 -10 9 -10 20 0 11 -4 20 -10
20 -5 0 -10 9 -10 20 0 11 -4 20 -10 20 -5 0 -1 -22 10 -49z"/>
</g>
</svg>
